<svg xmlns="http://www.w3.org/2000/svg" width="64" height="64" viewBox="0 0 504.8 504.8">
  <path d="M480 203.5q-9.6 0-16.8-7.2c-116.8-116-305.6-116-422.4 0-9.6 9.6-24.8 9.6-33.6 0-9.6-9.6-9.6-24.8 0-33.6 135.2-135.2 355.2-135.2 490.4 0 9.6 9.6 9.6 24.8 0 33.6-4.8 4.8-11.2 7.2-17.6 7.2"
        style="fill:#1a1a2e" transform="rotate(45 252 252)"/>
  <path d="M396 288.3q-9.6 0-16.8-7.2c-70.4-70.4-184-70.4-254.4 0-9.6 9.6-24.8 9.6-33.6 0-9.6-9.6-9.6-24.8 0-33.6 88.8-88.8 232.8-88.8 321.6 0 9.6 9.6 9.6 24.8 0 33.6q-7.2 7.2-16.8 7.2"
        style="fill:#f40" transform="rotate(45 252 252)"/>
  <path d="M309.6 369.1q-9.6 0-16.8-7.2c-22.4-22.4-59.2-22.4-81.6 0-9.6 9.6-24.8 9.6-33.6 0-9.6-9.6-9.6-24.8 0-33.6 40.8-40.8 108-40.8 148.8 0 9.6 9.6 9.6 24.8 0 33.6q-7.2 7.2-16.8 7.2"
        style="fill:#f40" transform="rotate(45 252 252)"/>
  <circle cx="252" cy="419.5" r="24" style="fill:#f40" transform="rotate(45 252 252)"/>
  <path d="M7.2 189.1c-.8.8-2.4 2.4-3.2 4 .8 1.6 1.6 2.4 3.2 4 9.6 9.6 24.8 9.6 33.6 0 116.8-116.8 305.6-116.8 422.4 0 4.8 4.8 11.2 7.2 16.8 7.2s12-2.4 16.8-7.2c.8-.8 2.4-2.4 3.2-4-.8-1.6-1.6-2.4-3.2-4-135.2-135.2-354.4-135.2-489.6 0"
        style="fill:#1a1a2e" transform="rotate(45 252 252)"/>
  <path d="M91.2 273.9c-.8.8-2.4 2.4-3.2 4 .8 1.6 1.6 2.4 3.2 4 9.6 9.6 24.8 9.6 33.6 0 70.4-70.4 184-70.4 254.4 0 4.8 4.8 11.2 7.2 16.8 7.2s12-2.4 16.8-7.2c.8-.8 2.4-2.4 3.2-4-.8-1.6-1.6-2.4-3.2-4-88.8-88.8-232.8-88.8-321.6 0"
        style="fill:#f40" transform="rotate(45 252 252)"/>
  <path d="M177.6 354.7c-.8.8-2.4 2.4-3.2 4 .8 1.6 1.6 2.4 3.2 4 9.6 9.6 24.8 9.6 33.6 0 22.4-22.4 59.2-22.4 81.6 0 4.8 4.8 11.2 7.2 16.8 7.2s12-2.4 16.8-7.2c.8-.8 2.4-2.4 3.2-4-.8-1.6-1.6-2.4-3.2-4-40.8-41.6-108-41.6-148.8 0m74.4 67.2c-8 0-16 4-20 10.4 4 6.4 12 10.4 20 10.4s16-4 20-10.4c-4-5.6-12-10.4-20-10.4"
        style="fill:#f40" transform="rotate(45 252 252)"/>
</svg>
