<svg xmlns="http://www.w3.org/2000/svg" viewBox="0 0 100 100" preserveAspectRatio="xMidYMid" width="200" height="200" style="shape-rendering: auto; display: block; background: transparent; --darkreader-inline-bgimage: initial; --darkreader-inline-bgcolor: #181a1b;" data-darkreader-inline-bgimage="" data-darkreader-inline-bgcolor="" xmlns:xlink="http://www.w3.org/1999/xlink"><g><g transform="rotate(0 50 50)">
  <rect fill="#fe5732" height="13" width="6" ry="6.5" rx="3" y="21.5" x="47">
    <animate repeatCount="indefinite" begin="-0.9569377990430623s" dur="1.0101010101010102s" keyTimes="0;1" values="1;0" attributeName="opacity"></animate>
  </rect>
</g><g transform="rotate(18.94736842105263 50 50)">
  <rect fill="#fe5732" height="13" width="6" ry="6.5" rx="3" y="21.5" x="47">
    <animate repeatCount="indefinite" begin="-0.9037745879851143s" dur="1.0101010101010102s" keyTimes="0;1" values="1;0" attributeName="opacity"></animate>
  </rect>
</g><g transform="rotate(37.89473684210526 50 50)">
  <rect fill="#fe5732" height="13" width="6" ry="6.5" rx="3" y="21.5" x="47">
    <animate repeatCount="indefinite" begin="-0.8506113769271665s" dur="1.0101010101010102s" keyTimes="0;1" values="1;0" attributeName="opacity"></animate>
  </rect>
</g><g transform="rotate(56.8421052631579 50 50)">
  <rect fill="#fe5732" height="13" width="6" ry="6.5" rx="3" y="21.5" x="47">
    <animate repeatCount="indefinite" begin="-0.7974481658692185s" dur="1.0101010101010102s" keyTimes="0;1" values="1;0" attributeName="opacity"></animate>
  </rect>
</g><g transform="rotate(75.78947368421052 50 50)">
  <rect fill="#fe5732" height="13" width="6" ry="6.5" rx="3" y="21.5" x="47">
    <animate repeatCount="indefinite" begin="-0.7442849548112707s" dur="1.0101010101010102s" keyTimes="0;1" values="1;0" attributeName="opacity"></animate>
  </rect>
</g><g transform="rotate(94.73684210526316 50 50)">
  <rect fill="#fe5732" height="13" width="6" ry="6.5" rx="3" y="21.5" x="47">
    <animate repeatCount="indefinite" begin="-0.6911217437533227s" dur="1.0101010101010102s" keyTimes="0;1" values="1;0" attributeName="opacity"></animate>
  </rect>
</g><g transform="rotate(113.6842105263158 50 50)">
  <rect fill="#fe5732" height="13" width="6" ry="6.5" rx="3" y="21.5" x="47">
    <animate repeatCount="indefinite" begin="-0.6379585326953748s" dur="1.0101010101010102s" keyTimes="0;1" values="1;0" attributeName="opacity"></animate>
  </rect>
</g><g transform="rotate(132.6315789473684 50 50)">
  <rect fill="#fe5732" height="13" width="6" ry="6.5" rx="3" y="21.5" x="47">
    <animate repeatCount="indefinite" begin="-0.584795321637427s" dur="1.0101010101010102s" keyTimes="0;1" values="1;0" attributeName="opacity"></animate>
  </rect>
</g><g transform="rotate(151.57894736842104 50 50)">
  <rect fill="#fe5732" height="13" width="6" ry="6.5" rx="3" y="21.5" x="47">
    <animate repeatCount="indefinite" begin="-0.531632110579479s" dur="1.0101010101010102s" keyTimes="0;1" values="1;0" attributeName="opacity"></animate>
  </rect>
</g><g transform="rotate(170.52631578947367 50 50)">
  <rect fill="#fe5732" height="13" width="6" ry="6.5" rx="3" y="21.5" x="47">
    <animate repeatCount="indefinite" begin="-0.47846889952153115s" dur="1.0101010101010102s" keyTimes="0;1" values="1;0" attributeName="opacity"></animate>
  </rect>
</g><g transform="rotate(189.47368421052633 50 50)">
  <rect fill="#fe5732" height="13" width="6" ry="6.5" rx="3" y="21.5" x="47">
    <animate repeatCount="indefinite" begin="-0.42530568846358324s" dur="1.0101010101010102s" keyTimes="0;1" values="1;0" attributeName="opacity"></animate>
  </rect>
</g><g transform="rotate(208.42105263157896 50 50)">
  <rect fill="#fe5732" height="13" width="6" ry="6.5" rx="3" y="21.5" x="47">
    <animate repeatCount="indefinite" begin="-0.37214247740563533s" dur="1.0101010101010102s" keyTimes="0;1" values="1;0" attributeName="opacity"></animate>
  </rect>
</g><g transform="rotate(227.3684210526316 50 50)">
  <rect fill="#fe5732" height="13" width="6" ry="6.5" rx="3" y="21.5" x="47">
    <animate repeatCount="indefinite" begin="-0.3189792663476874s" dur="1.0101010101010102s" keyTimes="0;1" values="1;0" attributeName="opacity"></animate>
  </rect>
</g><g transform="rotate(246.31578947368422 50 50)">
  <rect fill="#fe5732" height="13" width="6" ry="6.5" rx="3" y="21.5" x="47">
    <animate repeatCount="indefinite" begin="-0.2658160552897395s" dur="1.0101010101010102s" keyTimes="0;1" values="1;0" attributeName="opacity"></animate>
  </rect>
</g><g transform="rotate(265.2631578947368 50 50)">
  <rect fill="#fe5732" height="13" width="6" ry="6.5" rx="3" y="21.5" x="47">
    <animate repeatCount="indefinite" begin="-0.21265284423179162s" dur="1.0101010101010102s" keyTimes="0;1" values="1;0" attributeName="opacity"></animate>
  </rect>
</g><g transform="rotate(284.2105263157895 50 50)">
  <rect fill="#fe5732" height="13" width="6" ry="6.5" rx="3" y="21.5" x="47">
    <animate repeatCount="indefinite" begin="-0.1594896331738437s" dur="1.0101010101010102s" keyTimes="0;1" values="1;0" attributeName="opacity"></animate>
  </rect>
</g><g transform="rotate(303.1578947368421 50 50)">
  <rect fill="#fe5732" height="13" width="6" ry="6.5" rx="3" y="21.5" x="47">
    <animate repeatCount="indefinite" begin="-0.10632642211589581s" dur="1.0101010101010102s" keyTimes="0;1" values="1;0" attributeName="opacity"></animate>
  </rect>
</g><g transform="rotate(322.10526315789474 50 50)">
  <rect fill="#fe5732" height="13" width="6" ry="6.5" rx="3" y="21.5" x="47">
    <animate repeatCount="indefinite" begin="-0.053163211057947905s" dur="1.0101010101010102s" keyTimes="0;1" values="1;0" attributeName="opacity"></animate>
  </rect>
</g><g transform="rotate(341.05263157894734 50 50)">
  <rect fill="#fe5732" height="13" width="6" ry="6.5" rx="3" y="21.5" x="47">
    <animate repeatCount="indefinite" begin="0s" dur="1.0101010101010102s" keyTimes="0;1" values="1;0" attributeName="opacity"></animate>
  </rect>
</g><g></g></g><!-- [ldio] generated by https://loading.io --></svg>