<svg xmlns="http://www.w3.org/2000/svg" width="200" height="200" preserveAspectRatio="xMidYMid" style="shape-rendering:auto;display:block;background:0 0;--darkreader-inline-bgimage:initial;--darkreader-inline-bgcolor:#181a1b" viewBox="0 0 100 100"><rect width="6" height="13" x="47" y="21.5" fill="#fe5732" rx="3" ry="6.5"><animate attributeName="opacity" begin="-0.9569377990430623s" dur="1.0101010101010102s" keyTimes="0;1" repeatCount="indefinite" values="1;0"/></rect><rect width="6" height="13" x="47" y="21.5" fill="#fe5732" rx="3" ry="6.5" transform="rotate(18.947 50 50)"><animate attributeName="opacity" begin="-0.9037745879851143s" dur="1.0101010101010102s" keyTimes="0;1" repeatCount="indefinite" values="1;0"/></rect><rect width="6" height="13" x="47" y="21.5" fill="#fe5732" rx="3" ry="6.5" transform="rotate(37.895 50 50)"><animate attributeName="opacity" begin="-0.8506113769271665s" dur="1.0101010101010102s" keyTimes="0;1" repeatCount="indefinite" values="1;0"/></rect><rect width="6" height="13" x="47" y="21.5" fill="#fe5732" rx="3" ry="6.5" transform="rotate(56.842 50 50)"><animate attributeName="opacity" begin="-0.7974481658692185s" dur="1.0101010101010102s" keyTimes="0;1" repeatCount="indefinite" values="1;0"/></rect><rect width="6" height="13" x="47" y="21.5" fill="#fe5732" rx="3" ry="6.5" transform="rotate(75.79 50 50)"><animate attributeName="opacity" begin="-0.7442849548112707s" dur="1.0101010101010102s" keyTimes="0;1" repeatCount="indefinite" values="1;0"/></rect><rect width="6" height="13" x="47" y="21.5" fill="#fe5732" rx="3" ry="6.5" transform="rotate(94.737 50 50)"><animate attributeName="opacity" begin="-0.6911217437533227s" dur="1.0101010101010102s" keyTimes="0;1" repeatCount="indefinite" values="1;0"/></rect><rect width="6" height="13" x="47" y="21.5" fill="#fe5732" rx="3" ry="6.5" transform="rotate(113.684 50 50)"><animate attributeName="opacity" begin="-0.6379585326953748s" dur="1.0101010101010102s" keyTimes="0;1" repeatCount="indefinite" values="1;0"/></rect><rect width="6" height="13" x="47" y="21.5" fill="#fe5732" rx="3" ry="6.5" transform="rotate(132.632 50 50)"><animate attributeName="opacity" begin="-0.584795321637427s" dur="1.0101010101010102s" keyTimes="0;1" repeatCount="indefinite" values="1;0"/></rect><rect width="6" height="13" x="47" y="21.5" fill="#fe5732" rx="3" ry="6.5" transform="rotate(151.579 50 50)"><animate attributeName="opacity" begin="-0.531632110579479s" dur="1.0101010101010102s" keyTimes="0;1" repeatCount="indefinite" values="1;0"/></rect><rect width="6" height="13" x="47" y="21.5" fill="#fe5732" rx="3" ry="6.5" transform="rotate(170.526 50 50)"><animate attributeName="opacity" begin="-0.47846889952153115s" dur="1.0101010101010102s" keyTimes="0;1" repeatCount="indefinite" values="1;0"/></rect><rect width="6" height="13" x="47" y="21.5" fill="#fe5732" rx="3" ry="6.5" transform="rotate(189.474 50 50)"><animate attributeName="opacity" begin="-0.42530568846358324s" dur="1.0101010101010102s" keyTimes="0;1" repeatCount="indefinite" values="1;0"/></rect><rect width="6" height="13" x="47" y="21.5" fill="#fe5732" rx="3" ry="6.5" transform="rotate(208.421 50 50)"><animate attributeName="opacity" begin="-0.37214247740563533s" dur="1.0101010101010102s" keyTimes="0;1" repeatCount="indefinite" values="1;0"/></rect><rect width="6" height="13" x="47" y="21.5" fill="#fe5732" rx="3" ry="6.5" transform="rotate(227.368 50 50)"><animate attributeName="opacity" begin="-0.3189792663476874s" dur="1.0101010101010102s" keyTimes="0;1" repeatCount="indefinite" values="1;0"/></rect><rect width="6" height="13" x="47" y="21.5" fill="#fe5732" rx="3" ry="6.5" transform="rotate(246.316 50 50)"><animate attributeName="opacity" begin="-0.2658160552897395s" dur="1.0101010101010102s" keyTimes="0;1" repeatCount="indefinite" values="1;0"/></rect><rect width="6" height="13" x="47" y="21.5" fill="#fe5732" rx="3" ry="6.5" transform="rotate(265.263 50 50)"><animate attributeName="opacity" begin="-0.21265284423179162s" dur="1.0101010101010102s" keyTimes="0;1" repeatCount="indefinite" values="1;0"/></rect><rect width="6" height="13" x="47" y="21.5" fill="#fe5732" rx="3" ry="6.5" transform="rotate(284.21 50 50)"><animate attributeName="opacity" begin="-0.1594896331738437s" dur="1.0101010101010102s" keyTimes="0;1" repeatCount="indefinite" values="1;0"/></rect><rect width="6" height="13" x="47" y="21.5" fill="#fe5732" rx="3" ry="6.5" transform="rotate(303.158 50 50)"><animate attributeName="opacity" begin="-0.10632642211589581s" dur="1.0101010101010102s" keyTimes="0;1" repeatCount="indefinite" values="1;0"/></rect><rect width="6" height="13" x="47" y="21.5" fill="#fe5732" rx="3" ry="6.5" transform="rotate(322.105 50 50)"><animate attributeName="opacity" begin="-0.053163211057947905s" dur="1.0101010101010102s" keyTimes="0;1" repeatCount="indefinite" values="1;0"/></rect><rect width="6" height="13" x="47" y="21.5" fill="#fe5732" rx="3" ry="6.5" transform="rotate(341.053 50 50)"><animate attributeName="opacity" begin="0s" dur="1.0101010101010102s" keyTimes="0;1" repeatCount="indefinite" values="1;0"/></rect></svg>