<svg xmlns="http://www.w3.org/2000/svg" width="64" height="64" fill="none" viewBox="-16 -16 64 64"><path fill="#ff5733" d="M27 14v6c0 6.08-4.92 11-11 11S5 26.08 5 20v-6c0-.56.45-1 1-1h20c.59 0 1 .47 1 1"/><path fill="#668077" d="M16 21c.55 0 1-.45 1-1s-.45-1-1-1-1 .45-1 1 .45 1 1 1"/><path stroke="#1a1a2e" stroke-linecap="round" stroke-linejoin="round" stroke-width="2" d="M16 21v2m0-2a1 1 0 1 1 0-2 1 1 0 1 1 0 2M1 9V6a5 5 0 0 1 5-5 5 5 0 0 1 5 5v7h15c.594 0 1 .469 1 1v6c0 6.075-4.925 11-11 11S5 26.075 5 20v-6c0-.563.453-1 1-1h2"/></svg>